HIERARCHY
ROOT Hips
{
  OFFSET -148.359 95.3828 56.7144
  CHANNELS 6 Xposition Yposition Zposition Zrotation Xrotation Yrotation
  JOINT RightUpLeg
  {
    OFFSET -8.9458 -8.66707 0.101652
    CHANNELS 3 Zrotation Xrotation Yrotation
    JOINT RightLeg
    {
      OFFSET 0 -44.4227 1.3727
      CHANNELS 3 Zrotation Xrotation Yrotation
      JOINT RightFoot
      {
        OFFSET 0.253549 -42.0924 -1.46059
        CHANNELS 3 Zrotation Xrotation Yrotation
        JOINT RightToes
        {
          OFFSET 0.04 -4.41509 8.4991
          CHANNELS 3 Zrotation Xrotation Yrotation
          End Site
          {
            OFFSET -0.08 -0.137448 9.77979
          }
        }
      }
    }
  }
  JOINT Spine
  {
    OFFSET 0 11.8905 0
    CHANNELS 3 Zrotation Xrotation Yrotation
    JOINT Spine1
    {
      OFFSET 0 25.6574 0.127663
      CHANNELS 3 Zrotation Xrotation Yrotation
      JOINT HEad
      {
        OFFSET 0 8.73416 0.011341
        CHANNELS 3 Zrotation Xrotation Yrotation
        End Site
        {
          OFFSET -0.29 12.7742 2.51395
        }
      }
      JOINT LeftShoulder1
      {
        OFFSET 8.99 -0.362252 -0.22
        CHANNELS 3 Zrotation Xrotation Yrotation
        JOINT LeftArm
        {
          OFFSET 10.2827 -0.00338 0.322123
          CHANNELS 3 Zrotation Xrotation Yrotation
          JOINT LeftForeArm
          {
            OFFSET 32.7669 0.099144 -1.42434
            CHANNELS 3 Zrotation Xrotation Yrotation
            JOINT LeftHand
            {
              OFFSET 27.5643 0.085362 1.02216
              CHANNELS 3 Zrotation Xrotation Yrotation
              End Site
              {
                OFFSET 16.7443 -0.6 1.50291
              }
            }
          }
        }
      }
      JOINT RightShoulder
      {
        OFFSET -8.99 -0.362252 -0.22
        CHANNELS 3 Zrotation Xrotation Yrotation
        JOINT RightArm
        {
          OFFSET -10.2827 -0.00338 0.322123
          CHANNELS 3 Zrotation Xrotation Yrotation
          JOINT RightForeArm
          {
            OFFSET -32.8971 0.099144 -1.42434
            CHANNELS 3 Zrotation Xrotation Yrotation
            JOINT RightHand
            {
              OFFSET -27.4921 0.085362 1.02216
              CHANNELS 3 Zrotation Xrotation Yrotation
              End Site
              {
                OFFSET -16.6312 -0.6 1.50291
              }
            }
          }
        }
      }
    }
  }
  JOINT LeftUpLeg
  {
    OFFSET 8.9458 -8.66707 0.101652
    CHANNELS 3 Zrotation Xrotation Yrotation
    JOINT LeftLeg
    {
      OFFSET 0 -44.4227 1.3727
      CHANNELS 3 Zrotation Xrotation Yrotation
      JOINT LeftFoot
      {
        OFFSET -0.253549 -42.0924 -1.46059
        CHANNELS 3 Zrotation Xrotation Yrotation
        JOINT LeftToes
        {
          OFFSET -0.04 -4.41509 8.4991
          CHANNELS 3 Zrotation Xrotation Yrotation
          End Site
          {
            OFFSET 0.08 -0.047448 9.77979
          }
        }
      }
    }
  }
}
MOTION
Frames:	14
Frame Time:	0.0166667
-156.045 95.4705 58.3726 11.813 -6.24008 70.6494 -9.72357 10.1471 -2.559 6.21554 16.5959 -24.0026 88.3087 5.21089 -6.85001 0.0462048 0.000533403 0.662642 -6.28521 26.191 -13.789 -0.0065266 0.02271 0.0197789 3.7983 1.25969 15.8944 -2.78299e-015 -9.93923e-016 6.36111e-015 -178.778 -59.2078 -153.203 -91.4258 62.3204 -27.1852 20.7106 19.4406 -14.0445 17.9306 11.9439 12.0897 106.818 -9.5224 77.2974 31.2251 51.8497 78.0654 15.1095 12.0786 5.28932 26.9873 -14.7403 -15.4536 -43.4724 14.1822 82.0898 0.543497 -4.76607 -1.19173 -1.18446e-009 1.5602e-007 -4.87132e-009 
-155.87 95.2598 58.5476 11.2928 -6.32954 70.0577 -9.76844 7.6187 -4.06664 6.5136 20.449 -21.617 86.0905 4.90721 -5.80415 0.0462048 0.000533403 0.662642 -5.41054 23.9359 -12.9774 -0.00652432 0.02271 0.0140084 2.53647 2.83116 15.8123 -2.78299e-015 -5.96354e-016 -9.54166e-015 -176.628 -60.5723 -150.24 -89.043 62.6769 -28.1195 20.734 18.875 -14.0023 17.1228 13.1754 11.0902 106.771 -9.4538 76.6978 30.4917 54.1816 80.5684 15.4147 13.9252 4.59881 27.368 -14.5262 -15.4914 -42.5957 13.8356 79.1196 0.0433409 -4.95341 -1.20857 -1.18447e-009 1.5602e-007 -4.87132e-009 
-155.618 95.0765 58.7109 10.8128 -6.38173 69.6264 -10.0281 5.54161 -5.37959 6.55922 23.8153 -19.5686 84.1234 4.68208 -5.01422 0.0462048 0.000533403 0.662642 -4.52304 21.8206 -11.795 -0.00652206 0.02271 0.00830787 1.42613 4.34836 15.2393 3.97569e-016 3.97569e-016 -9.54166e-015 -172.752 -61.8063 -145.438 -86.1118 62.9548 -29.5396 20.7783 18.4077 -14.0659 16.4917 14.1958 9.66771 106.7 -9.43958 75.9627 29.3541 56.4725 83.5504 15.5639 13.7176 4.85102 27.5358 -14.2801 -15.5492 -41.9868 13.4528 76.5426 -0.320503 -5.08392 -1.20515 -1.18446e-009 1.5602e-007 -4.87132e-009 
-155.273 94.917 58.8043 10.3925 -6.37873 69.349 -10.7937 3.54459 -5.36812 7.5412 26.9573 -19.0422 82.11 4.36072 -4.35315 0.0462048 0.000533403 0.662642 -3.67669 19.877 -10.2963 -0.00651986 0.02271 0.00276727 0.510723 5.79928 14.2252 3.97569e-016 -1.98785e-016 -3.18055e-015 -167.124 -62.7113 -138.821 -82.5864 63.1181 -31.4985 20.8056 17.9893 -14.1095 16.0745 15.0102 7.87983 106.666 -9.51495 75.9734 29.9075 56.342 83.3507 15.9839 15.1841 4.24499 27.5703 -14.0352 -15.6031 -41.5256 13.1041 74.3278 -0.612429 -5.1801 -1.19924 -1.18446e-009 1.5602e-007 -4.87132e-009 
-154.83 94.7823 58.7928 10.0464 -6.30565 69.2165 -11.901 1.68738 -4.18069 9.68101 29.7134 -20.1007 79.8471 3.96372 -3.79565 0.0462048 0.000533403 0.662642 -2.91061 18.1211 -8.53952 -0.00651986 0.02271 0.00276727 -0.187445 7.17083 12.823 -7.95139e-016 -3.97569e-016 3.18055e-015 -160.018 -63.058 -130.687 -78.5319 63.1345 -33.9516 20.8137 17.6504 -14.1984 15.8664 15.6262 5.78342 106.58 -9.67809 75.8965 30.4229 56.2544 83.2879 16.2254 15.4127 4.20647 27.493 -13.8019 -15.6431 -41.1517 12.7922 72.4475 -0.844577 -5.23859 -1.18916 -1.18446e-009 1.5602e-007 -4.87131e-009 
-154.308 94.6708 58.6753 9.78414 -6.15574 69.218 -13.2363 0.00160306 -1.93861 13.046 31.8917 -22.7524 77.2627 3.51778 -3.32824 0.0462048 0.000533403 0.662642 -2.32688 16.802 -6.94545 -0.00651986 0.02271 0.00276727 -0.616346 8.20993 11.4715 -1.19271e-015 -7.95139e-016 -0 -152.834 -62.6454 -122.664 -74.1153 62.9708 -36.7866 20.783 17.3571 -14.25 15.8188 15.9401 3.90387 106.454 -9.94737 75.7636 30.905 56.204 83.3481 16.562 16.4658 3.75692 27.3121 -13.5858 -15.6628 -40.8471 12.5073 70.8818 -1.01466 -5.24875 -1.17004 -1.18446e-009 1.5602e-007 -4.87132e-009 
-153.742 94.5869 58.4848 9.60805 -5.93592 69.3426 -14.4866 -1.37315 0.132698 16.5752 33.4407 -25.6342 74.3519 3.12351 -2.93063 0.0462048 0.000533403 0.662642 -1.92694 15.8633 -5.52429 -0.00651986 0.02271 0.00276727 -0.824849 8.93922 10.1818 -3.97569e-016 -1.09332e-015 3.18055e-015 -146.164 -61.5884 -115.323 -69.5428 62.6133 -39.8522 20.7161 17.1289 -14.3018 15.8717 16.003 2.24859 106.316 -10.3157 75.5996 31.3627 56.1773 83.5207 16.7543 16.7481 3.64292 27.0431 -13.3845 -15.6594 -40.5929 12.2426 69.6051 -1.129 -5.20145 -1.13816 -1.18447e-009 1.5602e-007 -4.87132e-009 
-153.171 94.5298 58.2611 9.51533 -5.66022 69.5784 -15.6745 -2.45317 2.03798 20.075 34.3956 -28.5984 71.1872 2.77942 -2.59393 0.0462048 0.000533403 0.662642 -1.70302 15.2541 -4.2803 -0.00651986 0.02271 0.00276727 -0.857892 9.38648 8.96715 -0 -2.28602e-015 -0 -140.347 -60.0546 -108.988 -65.0193 62.0678 -42.9868 20.6085 16.9502 -14.3052 15.9821 15.8673 0.81421 106.186 -10.7537 75.4178 31.7919 56.1685 83.7805 17.0237 17.4477 3.25834 26.715 -13.2012 -15.6283 -40.384 12.0078 68.5952 -1.20257 -5.1026 -1.09561 -1.18447e-009 1.5602e-007 -4.87132e-009 
-152.62 94.4997 58.0344 9.49926 -5.34626 69.9115 -16.8042 -3.26459 3.78165 23.3879 34.827 -31.514 67.8221 2.48066 -2.30644 0.0462048 0.000533403 0.662642 -1.64104 14.9284 -3.21165 -0.00651986 0.02271 0.00276727 -0.754924 9.58245 7.84289 1.43452e-031 -1.2921e-015 6.36111e-015 -135.48 -58.2226 -103.749 -60.7252 61.3613 -46.0419 20.4752 16.8343 -14.2937 16.1267 15.579 -0.417142 106.068 -11.2161 75.2194 32.1777 56.1655 84.1219 17.2166 17.6741 3.06659 26.3513 -13.0364 -15.5669 -40.2071 11.8176 67.8234 -1.25282 -4.95947 -1.04521 -1.18446e-009 1.5602e-007 -4.87131e-009 
-152.105 94.4961 57.8203 9.55105 -5.01202 70.3266 -17.8669 -3.83921 5.36937 26.4104 34.8274 -34.2859 64.2923 2.22068 -2.05609 0.0462048 0.000533403 0.662642 -1.72219 14.8438 -2.31105 -0.00651986 0.02271 0.00276727 -0.549545 9.56041 6.82229 1.10348e-031 1.98785e-015 -3.18055e-015 -131.512 -56.2544 -99.5484 -56.8031 60.5406 -48.8941 20.3283 16.7687 -14.2482 16.3045 15.1739 -1.46835 105.945 -11.6547 74.9981 32.4883 56.1566 84.5449 17.4866 18.1303 2.69269 25.967 -12.8881 -15.4757 -40.0482 11.6852 67.2576 -1.29347 -4.77971 -0.989533 -1.18446e-009 1.5602e-007 -4.87131e-009 
-151.629 94.517 57.6242 9.66099 -4.67358 70.8067 -18.8491 -4.21099 6.8084 29.0923 34.4968 -36.856 60.6229 1.99148 -1.83225 0.0462048 0.000533403 0.662642 -1.92414 14.961 -1.56695 -0.00651986 0.02271 0.00276727 -0.270041 9.35554 5.91501 7.95139e-016 7.95139e-016 6.36111e-015 -128.334 -54.2846 -96.263 -53.3507 59.6659 -51.4526 20.1869 16.7466 -14.1955 16.5203 14.6801 -2.36344 105.794 -12.0306 74.7489 32.6958 56.1314 85.0536 17.7098 18.3137 2.42543 25.5714 -12.7529 -15.3583 -39.8978 11.6199 66.8664 -1.33448 -4.57144 -0.930745 -1.18447e-009 1.5602e-007 -4.87131e-009 
-151.191 94.5593 57.446 9.81903 -4.34412 71.334 -19.7364 -4.41413 8.10688 31.4252 33.9306 -39.1975 56.8336 1.78717 -1.62704 0.0462048 0.000533403 0.662642 -2.22241 15.2437 -0.965146 -0.00651986 0.02271 0.00276727 0.0597677 9.00309 5.12667 -1.98785e-016 -9.93923e-017 3.18055e-015 -125.818 -52.4139 -93.747 -50.4115 58.7956 -53.6674 20.0594 16.7453 -14.1315 16.7729 14.1222 -3.11812 105.606 -12.3223 74.4757 32.7874 56.0898 85.632 17.9599 18.6248 2.04401 25.1709 -12.6269 -15.2205 -39.7503 11.6272 66.6229 -1.38417 -4.3423 -0.870631 -1.18447e-009 1.5602e-007 -4.87132e-009 
-150.785 94.6218 57.2856 10.0149 -4.0334 71.8907 -20.5164 -4.48149 9.27288 33.427 33.2109 -41.3043 52.9409 1.60144 -1.43551 0.0462048 0.000533403 0.662642 -2.59195 15.6584 -0.490189 -0.00651986 0.02271 0.00276727 0.419593 8.53693 4.45928 -1.98785e-016 1.09332e-015 -0 -123.836 -50.7062 -91.8533 -47.9721 57.9711 -55.5346 19.9466 16.7579 -14.0803 17.055 13.5218 -3.74478 105.383 -12.5249 74.1895 32.7715 56.0374 86.2512 18.1292 18.7757 1.74581 24.7717 -12.5057 -15.069 -39.6015 11.707 66.5043 -1.44977 -4.0993 -0.810526 -1.18447e-009 1.5602e-007 -4.87131e-009 
-150.407 94.7028 57.1438 10.2385 -3.74828 72.4591 -21.18 -4.44353 10.3135 35.1283 32.4054 -43.1826 48.9598 1.42859 -1.25528 0.0462048 0.000533403 0.662642 -3.00882 16.1746 -0.126391 -0.00651986 0.02271 0.00276727 0.792146 7.98841 3.91202 0 1.98785e-016 -0 -122.266 -49.1904 -90.4451 -45.9745 57.2124 -57.0877 19.8405 16.7782 -14.0381 17.3595 12.8978 -4.25601 105.131 -12.6425 73.9034 32.6675 55.9824 86.874 18.2634 18.9987 1.40841 24.3812 -12.3848 -14.9093 -39.4473 11.8563 66.4894 -1.53906 -3.84902 -0.75153 -1.18446e-009 1.5602e-007 -4.87131e-009 
